<svg xmlns="http://www.w3.org/2000/svg" viewBox="0 0 410 410"><title>Asset 1</title><g id="Layer_2" data-name="Layer 2"><g id="Layer_1-2" data-name="Layer 1"><path d="M232,296.71V281.13a4.9,4.9,0,0,1,2.8-4.54c20.79-9.59,36.33-36,43.41-55.8a5,5,0,0,1,5-3.31h.18c4.85,0,11.49-9.14,13.75-16.7a13.83,13.83,0,0,0-9.29-17.21l-.31-.1a5,5,0,0,1-3.57-4.71c-.83-50.1-37.08-92.43-79.15-92.43-41.82,0-78.07,42.08-79.15,91.9a5,5,0,0,1-3.57,4.68l-2.2.66a13.84,13.84,0,0,0-9.28,17.21c2.34,7.84,9.88,17.38,15.28,16.57a5,5,0,0,1,5.48,3.26c7,19.81,22.76,46.35,43.64,56a5.11,5.11,0,0,1,3,4.54v15.58a34,34,0,0,1-24.11,32.72c-26.85,8.23-51.08,22.26-70.19,40.73a203.93,203.93,0,0,0,110.46,39.56l.73,0c1.35.07,2.72.12,4.08.16l1.15,0c1.62,0,3.25.06,4.88.06s3.25,0,4.87-.06l1.17,0c1.35,0,2.7-.09,4-.16l.79,0a203.93,203.93,0,0,0,109.86-39.11c-18.87-18.73-42.87-32.91-69.85-41.18A33.85,33.85,0,0,1,232,296.71Z"/><path d="M205,0C92,0,0,92,0,205A204.74,204.74,0,0,0,75.79,364c20.4-20.06,46.33-35.27,75.17-44.11a24.4,24.4,0,0,0,17-23.16V284.23c-21-11.21-36.67-35.91-44.81-57-10.8-1.51-19.43-14.34-22.2-23.61a23.83,23.83,0,0,1,14.78-29.25c1.34-24.56,10.85-48.81,26.38-67,17-20,39.28-31,62.64-31,46.43,0,86.56,44.92,89.06,98.84a23.9,23.9,0,0,1,12.89,28.47c-2.68,8.94-10.39,21.19-20.11,23.47C278.51,248.19,263,273,242,284.23v12.48a24.21,24.21,0,0,0,16.81,23.16c29,8.88,54.69,24.26,74.86,44.6A204.72,204.72,0,0,0,410,205C410,92,318,0,205,0Z"/></g></g></svg>