<svg xmlns="http://www.w3.org/2000/svg" viewBox="0 0 57.51 57.51"><defs><style>.cls-1{fill:#e41e25;}.cls-2{fill:#fff;}</style></defs><title>Asset 3</title><g id="Layer_2" data-name="Layer 2"><g id="Layer_1-2" data-name="Layer 1"><path class="cls-1" d="M53.1,22.59s0-.07,0-.1c-.07-.61-.13-.71-.76-.76-1.87-.13-3.7-.44-5.56-.62-.81-.07-1.62-.17-2.43-.22-1.25-.08-2.51,0-3.77,0-.94,0-1.89.14-2.84.25s-2,.37-3,.51c-.75.11-1.46.34-2.18.51a18.45,18.45,0,0,1-3.77.48A18.63,18.63,0,0,1,25,22.17c-.72-.17-1.43-.4-2.17-.51-1-.14-2-.39-3-.51s-1.88-.23-2.84-.25c-1.25,0-2.51-.09-3.76,0-.82.05-1.63.15-2.44.22-1.85.18-3.69.49-5.55.62-.63.05-.7.15-.76.76a.3.3,0,0,0,0,.1,15,15,0,0,0,0,2.22.52.52,0,0,0,.42.5,1.44,1.44,0,0,1,1.09,1.17c.16.72.28,1.45.4,2.17a20.44,20.44,0,0,0,1.17,4.42,5.65,5.65,0,0,0,3.18,3.23,13.19,13.19,0,0,0,3.87.88,15.14,15.14,0,0,0,4.25-.25,9.05,9.05,0,0,0,4.49-2.2,13.09,13.09,0,0,0,3-4.73c.34-.81.6-1.65.89-2.48a2,2,0,0,1,1.61-1.38,2,2,0,0,1,1.61,1.38c.28.83.54,1.67.88,2.48a13,13,0,0,0,3,4.73,9,9,0,0,0,4.48,2.2,15.16,15.16,0,0,0,4.25.25,13.12,13.12,0,0,0,3.87-.88,5.62,5.62,0,0,0,3.18-3.23,20.46,20.46,0,0,0,1.18-4.42c.11-.72.23-1.45.39-2.17a1.44,1.44,0,0,1,1.1-1.17.51.51,0,0,0,.41-.5A15,15,0,0,0,53.1,22.59Z"/><path class="cls-1" d="M28.76,57.51A28.76,28.76,0,1,1,57.51,28.76,28.79,28.79,0,0,1,28.76,57.51ZM28.76,3A25.76,25.76,0,1,0,54.51,28.76,25.78,25.78,0,0,0,28.76,3Z"/><path class="cls-1" d="M31.65,23.86a.5.5,0,0,1-.47-.34,3,3,0,0,1,.8-3,.5.5,0,0,1,.71,0,.49.49,0,0,1,0,.7h0a2,2,0,0,0-.54,2,.51.51,0,0,1-.32.64Z"/><path class="cls-1" d="M27.64,23.86l-.16,0a.5.5,0,0,1-.31-.64,2,2,0,0,0-.54-2,.51.51,0,0,1,0-.71.5.5,0,0,1,.71,0,3,3,0,0,1,.8,3A.49.49,0,0,1,27.64,23.86Z"/><path class="cls-1" d="M9.06,17.65a18,18,0,0,1,3.47-2,14.87,14.87,0,0,1,4-1.14,7.58,7.58,0,0,1,4.3.4A5.67,5.67,0,0,1,23.65,18a.1.1,0,0,1-.07.13h-.09a21,21,0,0,0-3.44-1.44,16.44,16.44,0,0,0-3.46-.67,13.8,13.8,0,0,0-3.74.5,20.1,20.1,0,0,0-3.69,1.26A.1.1,0,0,1,9,17.77.1.1,0,0,1,9.06,17.65Z"/><path class="cls-1" d="M49.32,17.82a20.1,20.1,0,0,0-3.69-1.26,13.72,13.72,0,0,0-3.73-.5,16.54,16.54,0,0,0-3.47.67A21.39,21.39,0,0,0,35,18.17h0a.11.11,0,0,1-.14-.05.11.11,0,0,1,0-.08,5.64,5.64,0,0,1,2.87-3.17,7.54,7.54,0,0,1,4.29-.4,15.05,15.05,0,0,1,4,1.14,18,18,0,0,1,3.47,2,.1.1,0,0,1,0,.14A.11.11,0,0,1,49.32,17.82Z"/><path class="cls-1" d="M22.32,22.61a.46.46,0,0,1-.22-.06c-2.93-1.5-8-3.68-9.36-3.19a.5.5,0,0,1-.36-.94c2.11-.81,8.84,2.56,10.17,3.24a.49.49,0,0,1,.22.67A.5.5,0,0,1,22.32,22.61Z"/><path class="cls-1" d="M34.71,22.61a.51.51,0,0,1-.45-.28.5.5,0,0,1,.23-.67c2.11-1,9.13-4.33,10.86-2.79a.5.5,0,0,1-.67.75c-.83-.75-5.71.94-9.75,2.93A.46.46,0,0,1,34.71,22.61Z"/><path class="cls-1" d="M28.1,30.26h2.48s.55,5.64,1.74,8.45H26.06A80.82,80.82,0,0,0,28.1,30.26Z"/><path class="cls-1" d="M23.91,38.7c.43.6.73,1.18,1.07,1.61a1.25,1.25,0,0,0,.43.39c.06,0,0,0,.1,0l.3,0a7.13,7.13,0,0,1,1.06.15,2,2,0,0,1,1.13.75,14.41,14.41,0,0,1,1,1.93l-.23-.26c.21,0,.75-.15.67-.07a.59.59,0,0,1,0-.44,2.89,2.89,0,0,1,.27-.76,2.54,2.54,0,0,1,.55-.75,2.47,2.47,0,0,1,.93-.55l.14,0,.37,0a6.93,6.93,0,0,0,.89,0c.12,0,.2,0,.25,0s0,.11.21-.12.55-.59.8-.9a3.51,3.51,0,0,0,.64-1.05.11.11,0,0,1,.13-.08.1.1,0,0,1,.06.05,2.29,2.29,0,0,1,.26,1.5,6.08,6.08,0,0,1-.4,1.41l-.07.16a1.66,1.66,0,0,1-.16.25,2.19,2.19,0,0,1-.43.43,2.53,2.53,0,0,1-1,.42,2.65,2.65,0,0,1-1.2-.07c-.07,0-.2,0-.38.22a2.5,2.5,0,0,0-.24.36l-.22.42-.13.33a1.15,1.15,0,0,1-.82.42,1.68,1.68,0,0,1-.59-.08,3.78,3.78,0,0,1-.83-.41l-.22-.12V43.8a2,2,0,0,0-.78-1.57c-.49-.24-.74.17-1.58.28a2.35,2.35,0,0,1-.69,0,1.81,1.81,0,0,1-.8-.36A2.39,2.39,0,0,1,23.62,41a3.53,3.53,0,0,1,.09-2.23.11.11,0,0,1,.14-.06l.06,0Z"/><path class="cls-1" d="M17.92,45.39a10.74,10.74,0,0,0-1.4,2.36S14,46.79,15,45.11c0,0,2-3.36,2.87-2.88a22,22,0,0,0,2.68,3.16s5.34,1.33,7.72.92c1.66-.29,1.36-.12,1.52.36s.34.27.34.27a1,1,0,0,1,.89-.75s5.62.27,7.17-.33c0,0,2.75-1.83,2.87-2.67,0,0,.83-1,1.31-.48l1.55,3s1,2.16-.71,2.88c0,0-.36-3.05-1.32-3.2a2.59,2.59,0,0,0-1.91,0,22.87,22.87,0,0,1-9.67,2.67s-4.63-.18-6.58-.91C22.73,46.79,17.92,45.39,17.92,45.39Z"/><path class="cls-1" d="M17.68,47.37s.59-.61,2,0c0,0,7.93,2.51,9.88,2.2,0,0,7.45-1,9.6-1.94l2,.1a12,12,0,0,1-3.06,2.08s-3.25,1.38-4,1.57a20.86,20.86,0,0,1-5.94.71,50.21,50.21,0,0,1-5.54-1.59,11.17,11.17,0,0,0-1.16-.7Z"/><path class="cls-1" d="M28.38,52.21h-.15a49,49,0,0,1-5.6-1.62,12.41,12.41,0,0,0-1.15-.69l-3.87-2.43a.15.15,0,0,1-.06-.09.13.13,0,0,1,0-.1s.67-.66,2.17,0c.07,0,7.92,2.47,9.81,2.19.08,0,7.46-1,9.57-1.94h0l2,.09a.12.12,0,0,1,.11.08.14.14,0,0,1,0,.13,12,12,0,0,1-3.1,2.11c-.14.06-3.27,1.39-4,1.58A20.75,20.75,0,0,1,28.38,52.21Zm-6.77-2.53s.57.3,1.16.7A46,46,0,0,0,28.26,52h.13a20.64,20.64,0,0,0,5.75-.71c.72-.19,3.94-1.55,4-1.57a12.52,12.52,0,0,0,2.81-1.85l-1.71-.08c-2.17.9-9.3,1.89-9.6,1.94-2,.31-9.61-2.11-9.94-2.21a2,2,0,0,0-1.77-.12l3.71,2.32Z"/><path class="cls-2" d="M39.85,23.31a13.21,13.21,0,0,1,4.86-.76,5.43,5.43,0,0,1,2.51.55,3.5,3.5,0,0,1,1.67,2s0,.05,0,.06,0,0-.05,0a9.15,9.15,0,0,0-2-1.11,12.06,12.06,0,0,0-2.16-.65,10.9,10.9,0,0,0-2.36-.15,15,15,0,0,0-2.4.21s0,0-.06,0A.08.08,0,0,1,39.85,23.31Z"/><path class="cls-2" d="M12.94,23.31a13.21,13.21,0,0,1,4.86-.76,5.43,5.43,0,0,1,2.51.55,3.48,3.48,0,0,1,1.66,2,0,0,0,0,1,0,.06,0,0,0,0,1-.05,0,9.15,9.15,0,0,0-2-1.11,12.32,12.32,0,0,0-2.16-.65,10.9,10.9,0,0,0-2.36-.15,15,15,0,0,0-2.4.21s-.05,0-.06,0A.06.06,0,0,1,12.94,23.31Z"/></g></g></svg>