<svg xmlns="http://www.w3.org/2000/svg" viewBox="0 0 286.83 51.55"><defs><style>.cls-1,.cls-3{fill:#e41e25;}.cls-1{stroke:#fffde9;stroke-linecap:round;stroke-linejoin:round;stroke-width:0.6px;}.cls-2{fill:#fffde9;}.cls-4{fill:#fff;}</style></defs><title>Asset 5</title><g id="Layer_2" data-name="Layer 2"><g id="Layer_1-2" data-name="Layer 1"><path class="cls-1" d="M27.76,38.12l0,2.13H19.36L13.67,29.59l-3.47,0v7.94l3.77.55-.05,2.13H.55L.3,38.91A20.1,20.1,0,0,1,3.85,37.2V15.26L.76,14.88l0-2.13,13.33-.33A12.31,12.31,0,0,1,22,14.84a7.43,7.43,0,0,1,3.07,6.06,7.77,7.77,0,0,1-1.5,4.58,9.31,9.31,0,0,1-4.1,3.19l5.6,9.11Zm-17.56-12a13.24,13.24,0,0,0,2.72.3,5.41,5.41,0,0,0,4.28-1.51A5.67,5.67,0,0,0,18.52,21c0-2.46-.83-4.24-2.51-5.35l-5.81.62Z"/><path class="cls-1" d="M52.62,38.24l-5.14,2.68a3.74,3.74,0,0,1-2.21-1.07,6.23,6.23,0,0,1-1.72-2.4,22.48,22.48,0,0,1-7.14,3.47,7.15,7.15,0,0,1-5.06-3c-.39-.58-.6-1.88-.63-3.89V23.45l-3.13-.38-.29-2a22,22,0,0,1,7.44-1.47l2,1.84V32.89c0,2.43.9,3.64,2.68,3.64a8.4,8.4,0,0,0,3.59-1V23.41L40.42,23l-.29-2a21.89,21.89,0,0,1,6.94-1.38l2,1.84V35.49c0,.75.35,1.12,1,1.12l2.09-.25Z"/><path class="cls-1" d="M87.65,37a12,12,0,0,1,2.92,1.21l-.17,2h-11l-.13-1.42,2.35-1.09V28.17q0-4.09-2.72-4.09a8.47,8.47,0,0,0-3.72,1.33l0,11.62a14,14,0,0,1,2.63,1.17l-.16,2H67l-.13-1.42,2.3-1V28.17c0-2.73-.9-4.09-2.72-4.09a8.89,8.89,0,0,0-3.67,1.29v11.7a12,12,0,0,1,2.55,1.13l-.17,2H53.75l-.12-1.42a23.1,23.1,0,0,1,3-1.34v-14l-3.14-.38-.29-2a22.08,22.08,0,0,1,7.44-1.47l2.05,2v1.76a20.81,20.81,0,0,1,6.81-3.64,7.22,7.22,0,0,1,2.82.84,5.38,5.38,0,0,1,2.28,2.09,2.6,2.6,0,0,1,.29.87A21.94,21.94,0,0,1,82,19.73,7,7,0,0,1,85.6,21a4.3,4.3,0,0,1,1.92,3l.13,2.39Z"/><path class="cls-1" d="M125.88,37a12.09,12.09,0,0,1,2.93,1.21l-.17,2h-11l-.13-1.42,2.34-1.09V28.17q0-4.09-2.71-4.09a8.47,8.47,0,0,0-3.72,1.33l0,11.62a14.31,14.31,0,0,1,2.63,1.17l-.16,2H105.2l-.13-1.42,2.3-1V28.17c0-2.73-.9-4.09-2.72-4.09A8.89,8.89,0,0,0,101,25.37v11.7a12,12,0,0,1,2.55,1.13l-.17,2H92l-.12-1.42a22.52,22.52,0,0,1,3-1.34v-14l-3.14-.38-.29-2a22,22,0,0,1,7.44-1.47l2,2v1.76a20.81,20.81,0,0,1,6.81-3.64,7.22,7.22,0,0,1,2.82.84,5.38,5.38,0,0,1,2.28,2.09,2.85,2.85,0,0,1,.29.87,21.94,21.94,0,0,1,7.06-3.8,7,7,0,0,1,3.6,1.3,4.3,4.3,0,0,1,1.92,3l.12,2.39Z"/><path class="cls-1" d="M139.22,37a16.26,16.26,0,0,1,3.05,1.25l-.17,2h-12L130,38.83a20.16,20.16,0,0,1,3.18-1.38v-14L130,23.07l-.29-2a22,22,0,0,1,7.44-1.47l2.05,1.84Zm-2.72-20a11.38,11.38,0,0,1-4.39-3.39,12.47,12.47,0,0,1,3.6-4.43,12.61,12.61,0,0,1,4.22,3.68A10.6,10.6,0,0,1,136.5,16.93Z"/><path class="cls-1" d="M224.64,38.08l0,2.17h-8.4L207.67,28.3,206,30.09v7.53l3.51.5,0,2.13H196.3l-.25-1.34a19.91,19.91,0,0,1,3.56-1.71V15.34l-3.26-.46,0-2.13h12.83l.25,1.34A26.11,26.11,0,0,1,206,15.8v9.36l9.23-9.86-2.75-.42,0-2.13h10.36l.25,1.34a19.19,19.19,0,0,1-3.47,1.54l-7.81,8.28,10.24,13.75Z"/><path class="cls-1" d="M234.46,37a16.26,16.26,0,0,1,3,1.25l-.17,2h-12l-.13-1.42a20.59,20.59,0,0,1,3.18-1.38V13.29L225.27,13l-.3-2a22.07,22.07,0,0,1,7.44-1.46l2.05,1.84Z"/><path class="cls-1" d="M263.88,38.24l-5.14,2.68a3.69,3.69,0,0,1-2.21-1.07,6,6,0,0,1-1.72-2.4,22.42,22.42,0,0,1-7.15,3.47,6.63,6.63,0,0,1-2.73-.88A6.51,6.51,0,0,1,242.61,38c-.39-.58-.6-1.88-.63-3.89V23.45l-3.13-.38-.3-2A22.08,22.08,0,0,1,246,19.6l2,1.84V32.89q0,3.64,2.68,3.64a8.4,8.4,0,0,0,3.59-1V23.41L251.68,23l-.3-2a22,22,0,0,1,6.94-1.38l2.05,1.84V35.49c0,.75.35,1.12,1,1.12l2.09-.25Z"/><path class="cls-1" d="M277.29,19.86l1.51-.13a6.76,6.76,0,0,1,5.56,2.78,10.94,10.94,0,0,1,2.17,7,11.26,11.26,0,0,1-3.26,8.31A11.39,11.39,0,0,1,274.83,41a22.93,22.93,0,0,1-8.23-1.71v-26L263.5,13l-.29-2a22.43,22.43,0,0,1,7.44-1.46v0l2,1.84v11.7Zm0,17.59a7,7,0,0,0,2.11-2.93,10.3,10.3,0,0,0,.77-3.92A8,8,0,0,0,279,26.1a3.73,3.73,0,0,0-3.24-1.86,6.77,6.77,0,0,0-3.09,1V36.82a7.72,7.72,0,0,0,3.38.71Z"/><ellipse class="cls-2" cx="169.23" cy="25.44" rx="23.86" ry="24.89"/><path class="cls-3" d="M191.42,20.25s0-.06,0-.09c-.06-.55-.12-.64-.69-.68-1.67-.12-3.32-.39-5-.55-.72-.07-1.45-.16-2.18-.21-1.12-.06-2.25,0-3.38,0-.84,0-1.69.13-2.54.23s-1.8.33-2.71.46c-.67.09-1.31.3-2,.45a13.54,13.54,0,0,1-6.77,0c-.64-.15-1.28-.36-2-.45-.91-.13-1.8-.35-2.71-.46s-1.69-.21-2.55-.23c-1.12,0-2.25-.07-3.37,0-.73.05-1.46.14-2.18.21-1.67.16-3.32.43-5,.55-.57,0-.63.13-.69.68,0,0,0,.06,0,.09a13.2,13.2,0,0,0,0,2,.44.44,0,0,0,.37.44,1.32,1.32,0,0,1,1,1.06c.14.65.25,1.29.36,1.94a18.14,18.14,0,0,0,1,4,5.09,5.09,0,0,0,2.85,2.89,11.82,11.82,0,0,0,3.48.79,13.92,13.92,0,0,0,3.81-.23,8,8,0,0,0,4-2,11.69,11.69,0,0,0,2.72-4.24c.3-.72.54-1.47.79-2.22a1.46,1.46,0,0,1,2.89,0c.25.75.48,1.5.79,2.22a11.56,11.56,0,0,0,2.72,4.24,7.94,7.94,0,0,0,4,2,13.92,13.92,0,0,0,3.81.23,11.75,11.75,0,0,0,3.47-.79,5,5,0,0,0,2.85-2.89,18.16,18.16,0,0,0,1.05-4c.11-.65.21-1.29.36-1.94a1.32,1.32,0,0,1,1-1.06.45.45,0,0,0,.37-.44A13.2,13.2,0,0,0,191.42,20.25Z"/><path class="cls-3" d="M169.59,51.55a25.78,25.78,0,1,1,25.78-25.77A25.8,25.8,0,0,1,169.59,51.55Zm0-48.86a23.09,23.09,0,1,0,23.09,23.09A23.12,23.12,0,0,0,169.59,2.69Z"/><path class="cls-3" d="M172.19,21.39a.44.44,0,0,1-.42-.31,2.74,2.74,0,0,1,.71-2.72.47.47,0,0,1,.64,0,.44.44,0,0,1,0,.63h0a1.82,1.82,0,0,0-.48,1.78.46.46,0,0,1-.29.57Z"/><path class="cls-3" d="M168.59,21.39l-.14,0a.45.45,0,0,1-.28-.57,1.86,1.86,0,0,0-.48-1.78.44.44,0,0,1,0-.63.47.47,0,0,1,.64,0,2.73,2.73,0,0,1,.72,2.72A.46.46,0,0,1,168.59,21.39Z"/><path class="cls-3" d="M151.94,15.82A16.31,16.31,0,0,1,155,14a13.68,13.68,0,0,1,3.55-1,6.72,6.72,0,0,1,3.85.36A5.1,5.1,0,0,1,165,16.17a.09.09,0,0,1-.06.12.09.09,0,0,1-.07,0h0A19.32,19.32,0,0,0,161.79,15a14.52,14.52,0,0,0-3.11-.6,12.42,12.42,0,0,0-3.34.44A18,18,0,0,0,152,16a.09.09,0,0,1-.12,0A.08.08,0,0,1,151.94,15.82Z"/><path class="cls-3" d="M188,16a18.48,18.48,0,0,0-3.31-1.13,12.44,12.44,0,0,0-3.35-.44,14.55,14.55,0,0,0-3.1.6,19.78,19.78,0,0,0-3.09,1.28h0a.09.09,0,0,1-.12-.05.17.17,0,0,1,0-.07,5.08,5.08,0,0,1,2.58-2.84,6.69,6.69,0,0,1,3.84-.36A13.46,13.46,0,0,1,185,14a16.08,16.08,0,0,1,3.11,1.83.09.09,0,0,1,0,.13A.09.09,0,0,1,188,16Z"/><path class="cls-3" d="M163.83,20.26a.52.52,0,0,1-.21,0c-2.62-1.35-7.21-3.31-8.39-2.87a.44.44,0,1,1-.32-.83c1.89-.74,7.93,2.29,9.12,2.9a.45.45,0,0,1,.2.6A.44.44,0,0,1,163.83,20.26Z"/><path class="cls-3" d="M174.93,20.26a.43.43,0,0,1-.4-.25.45.45,0,0,1,.2-.6c1.89-.93,8.19-3.87,9.74-2.49a.44.44,0,0,1,0,.63.45.45,0,0,1-.63,0c-.75-.67-5.12.84-8.74,2.63A.51.51,0,0,1,174.93,20.26Z"/><path class="cls-3" d="M169,27.12h2.23s.49,5.07,1.56,7.58h-5.61A72.87,72.87,0,0,0,169,27.12Z"/><path class="cls-3" d="M165.25,34.7c.38.53.65,1,1,1.43a1,1,0,0,0,.38.35l.09,0,.27,0a5.42,5.42,0,0,1,1,.14,1.81,1.81,0,0,1,1,.67,14.31,14.31,0,0,1,.9,1.72l-.2-.23c.18,0,.67-.14.59-.06a.58.58,0,0,1,0-.4,3.26,3.26,0,0,1,.24-.68,2.66,2.66,0,0,1,.49-.67,2.27,2.27,0,0,1,.84-.49l.12,0,.33,0a5.63,5.63,0,0,0,.8,0c.11,0,.19,0,.23,0s0,.11.18-.1.5-.54.72-.81a2.86,2.86,0,0,0,.57-.95.1.1,0,0,1,.18,0,2.16,2.16,0,0,1,.23,1.35,5.1,5.1,0,0,1-.36,1.26l-.06.14a2.38,2.38,0,0,1-.14.23,1.56,1.56,0,0,1-.39.38,2.18,2.18,0,0,1-.87.38,2.51,2.51,0,0,1-1.07-.06c-.06,0-.19,0-.35.2a2.21,2.21,0,0,0-.22.32l-.19.37-.12.3a1,1,0,0,1-.73.37,1.24,1.24,0,0,1-.53-.07,3.47,3.47,0,0,1-.75-.36l-.19-.11v-.12a1.8,1.8,0,0,0-.7-1.41c-.44-.22-.66.15-1.42.24a1.65,1.65,0,0,1-.62,0,1.68,1.68,0,0,1-.71-.32,2.08,2.08,0,0,1-.69-1,3.1,3.1,0,0,1,.08-2,.1.1,0,0,1,.13-.06.08.08,0,0,1,0,0Z"/><path class="cls-3" d="M159.88,40.69a9.78,9.78,0,0,0-1.26,2.11s-2.25-.86-1.39-2.36c0,0,1.82-3,2.57-2.58a20,20,0,0,0,2.4,2.83s4.79,1.19,6.92.82c1.49-.26,1.22-.1,1.36.33s.31.24.31.24a.85.85,0,0,1,.79-.67s5,.24,6.44-.3c0,0,2.46-1.64,2.56-2.39,0,0,.75-.86,1.18-.43L183.15,41s.86,1.93-.64,2.57c0,0-.32-2.72-1.18-2.86a2.3,2.3,0,0,0-1.71,0,20.61,20.61,0,0,1-8.67,2.4,27.89,27.89,0,0,1-5.9-.82C164.19,41.94,159.88,40.69,159.88,40.69Z"/><path class="cls-3" d="M159.66,42.46s.54-.54,1.82,0c0,0,7.11,2.24,8.86,2,0,0,6.68-.92,8.6-1.74l1.83.08A10.76,10.76,0,0,1,178,44.64s-2.91,1.24-3.57,1.41a18.46,18.46,0,0,1-5.32.64,44.3,44.3,0,0,1-5-1.43c-.54-.36-1-.63-1-.63Z"/><path class="cls-3" d="M169.26,46.8h-.13a42.71,42.71,0,0,1-5-1.45,11.14,11.14,0,0,0-1-.62l-3.47-2.18a.08.08,0,0,1,0-.08.16.16,0,0,1,0-.09s.6-.59,1.95,0c.06,0,7.1,2.22,8.79,2,.07,0,6.69-.93,8.58-1.74h0l1.82.08a.13.13,0,0,1,.1.07.1.1,0,0,1,0,.12,11.22,11.22,0,0,1-2.78,1.89c-.13,0-2.94,1.25-3.59,1.42A19.11,19.11,0,0,1,169.26,46.8Zm-6.08-2.26a10.34,10.34,0,0,1,1,.63,43.49,43.49,0,0,0,4.92,1.41h.11a18.34,18.34,0,0,0,5.16-.64c.64-.17,3.53-1.39,3.56-1.4a11,11,0,0,0,2.51-1.67L179,42.8c-1.94.81-8.33,1.7-8.6,1.74-1.76.28-8.62-1.89-8.91-2a1.85,1.85,0,0,0-1.59-.11l3.32,2.09Z"/><path class="cls-4" d="M179.54,20.9a11.78,11.78,0,0,1,4.35-.69,4.8,4.8,0,0,1,2.25.5,3.14,3.14,0,0,1,1.5,1.75,0,0,0,0,1,0,.06h-.05a7.67,7.67,0,0,0-1.8-1,10.69,10.69,0,0,0-1.94-.59,9.9,9.9,0,0,0-2.11-.13,12.92,12.92,0,0,0-2.15.19s-.05,0-.05,0S179.52,20.91,179.54,20.9Z"/><path class="cls-4" d="M155.41,20.9a11.83,11.83,0,0,1,4.36-.69,4.86,4.86,0,0,1,2.25.5,3.12,3.12,0,0,1,1.49,1.75,0,0,0,0,1,0,.06h0a7.67,7.67,0,0,0-1.8-1,11.19,11.19,0,0,0-1.94-.59,10,10,0,0,0-2.12-.13,12.89,12.89,0,0,0-2.14.19,0,0,0,0,1,0-.09Z"/></g></g></svg>